<svg xmlns="http://www.w3.org/2000/svg" viewBox="0 0 512 455.51"><defs><style>.cls-1{fill:#006599;}.cls-2{fill:#58c0c9;}</style></defs><g id="Capa_2" data-name="Capa 2"><g id="Capa_1-2" data-name="Capa 1"><path class="cls-1" d="M512,153.87c0,43.29-16.13,82.94-50.77,124.73C430.23,316,385.7,354,334.11,397.91c-17.62,15-37.59,32-58.32,50.17a30,30,0,0,1-19.61,7.43H256a30,30,0,0,1-19.79-7.44C215.52,430,195.58,413,178,398l-.09-.07C126.32,354,81.77,316,50.78,278.6,16.13,236.81,0,197.16,0,153.87,0,111.8,14.43,73,40.62,44.57,67.12,15.82,103.49,0,143,0c29.56,0,56.62,9.34,80.45,27.76a164.33,164.33,0,0,1,32.52,34l.18-.24a164,164,0,0,1,32.35-33.73C312.35,9.34,339.42,0,369,0c39.55,0,75.91,15.82,102.41,44.57C497.57,73,512,111.79,512,153.87Z"/><path class="cls-2" d="M512,153.87c0,43.29-16.13,82.94-50.77,124.73C430.23,316,385.7,354,334.11,397.91c-17.62,15-37.59,32-58.32,50.17a30,30,0,0,1-19.61,7.43v-394a164,164,0,0,1,32.35-33.73C312.35,9.34,339.42,0,369,0c39.55,0,75.91,15.82,102.41,44.57C497.57,73,512,111.79,512,153.87Z"/></g></g></svg>