<svg xmlns="http://www.w3.org/2000/svg" width="124.5" height="124.5" viewBox="0 0 124.5 124.5">
  <g id="_14" data-name="14" transform="translate(-32 -32)">
    <g id="Grupo_180" data-name="Grupo 180" transform="translate(32 32)">
      <path id="Trazado_432" data-name="Trazado 432" d="M138.395,67.116h11.361a3.335,3.335,0,0,0,3.3-3.807A8.556,8.556,0,0,0,144.629,56h-1.107a8.555,8.555,0,0,0-8.428,7.309,3.335,3.335,0,0,0,3.3,3.807Z" transform="translate(-106.419 -49.33)" fill="#58c0c9"/>
      <path id="Trazado_433" data-name="Trazado 433" d="M158,32a4.449,4.449,0,0,0-3.85,2.223h7.7A4.449,4.449,0,0,0,158,32Z" transform="translate(-120.203 -32)" fill="#58c0c9"/>
      <path id="Trazado_434" data-name="Trazado 434" d="M206.976,67.116h3.251a3.335,3.335,0,0,0,3.3-3.807A8.555,8.555,0,0,0,205.1,56h-.536a12.881,12.881,0,0,1,3.083,6.681A7.777,7.777,0,0,1,206.976,67.116Z" transform="translate(-156.609 -49.33)" fill="#58c0c9"/>
      <path id="Trazado_435" data-name="Trazado 435" d="M102.395,67.116h2.974a7.777,7.777,0,0,1-.672-4.435A12.881,12.881,0,0,1,107.779,56h-.258a8.555,8.555,0,0,0-8.428,7.309,3.335,3.335,0,0,0,3.3,3.807Z" transform="translate(-80.424 -49.33)" fill="#58c0c9"/>
      <rect id="Rect치ngulo_29" data-name="Rect치ngulo 29" width="13" height="7" rx="2" transform="translate(18 31)" fill="#58c0c9"/>
      <path id="Trazado_436" data-name="Trazado 436" d="M130.631,118.67a5,5,0,0,1,4.157-2.223h8.337V112H112v4.446h8.337a5,5,0,0,1,4.157,2.223Z" transform="translate(-89.768 -89.768)" fill="#58c0c9"/>
      <rect id="Rect치ngulo_30" data-name="Rect치ngulo 30" width="14" height="7" rx="2" transform="translate(44 31)" fill="#58c0c9"/>
      <path id="Trazado_437" data-name="Trazado 437" d="M365.339,280.556a.556.556,0,0,0-.556-.556H352.556a.556.556,0,0,0-.556.556v3.891h13.339Z" transform="translate(-263.071 -211.08)" fill="#58c0c9"/>
      <path id="Trazado_438" data-name="Trazado 438" d="M112,160.893v3.74a6.081,6.081,0,0,0,3.38,5.469l10.676,5.338a3.349,3.349,0,0,0,3-.008L139.773,170a6.086,6.086,0,0,0,3.352-5.454v-3.656h-8.337a5.008,5.008,0,0,1-5-5V152h-4.446v3.891a5.008,5.008,0,0,1-5,5Z" transform="translate(-89.768 -118.652)" fill="#58c0c9"/>
      <path id="Trazado_439" data-name="Trazado 439" d="M115.5,267.082l15.049-6.946-10.97-4.7a2.223,2.223,0,0,1-1.233-1.341l-3.648-10.943-4.083,2.068a7.814,7.814,0,0,1-7,.018l-4.1-2.049L95.88,254.094a2.223,2.223,0,0,1-1.233,1.341l-10.97,4.7,15.049,6.946A19.981,19.981,0,0,0,115.5,267.082Z" transform="translate(-69.316 -184.472)" fill="#58c0c9"/>
      <path id="Trazado_440" data-name="Trazado 440" d="M272,304v8.893h57.8V304Zm11.116,6.67h-6.67v-4.446h6.67Zm42.241,0h-6.67v-4.446h6.67Z" transform="translate(-205.304 -228.411)" fill="#58c0c9"/>
      <path id="Trazado_441" data-name="Trazado 441" d="M40.893,345.626v-8.893h4.446v6.67H89.8a17.751,17.751,0,0,1,4.446.563V314.557l-14.207,6.557a24.421,24.421,0,0,1-20.5,0l-18.91-8.729L37.472,313.7A8.869,8.869,0,0,0,32,321.912v33.719a3.338,3.338,0,0,0,3.335,3.335H76.464V347.849H43.116A2.223,2.223,0,0,1,40.893,345.626Z" transform="translate(-32 -234.466)" fill="#58c0c9"/>
      <path id="Trazado_442" data-name="Trazado 442" d="M384.505,385.207l1.961,3.4,2.416-3.659Z" transform="translate(-286.543 -286.86)" fill="#58c0c9"/>
      <path id="Trazado_443" data-name="Trazado 443" d="M272,374.032l26.986-15.58,1.925-1.112a2.224,2.224,0,0,1,.979-.294l9.925-.6a2.223,2.223,0,0,1,1.988,3.444l-5.478,8.3a2.219,2.219,0,0,1-.744.7L305.655,370l-25.5,14.722a17.634,17.634,0,0,1,.6,2.846H329.8V352H272Zm48.911-17.586h4.446v4.446h-4.446Zm0,22.232h4.446v4.446h-4.446Zm-44.464-22.232h4.446v4.446h-4.446Z" transform="translate(-205.304 -263.071)" fill="#58c0c9"/>
      <path id="Trazado_444" data-name="Trazado 444" d="M216.893,440H208v11.116h22.047A13.361,13.361,0,0,0,216.893,440Z" transform="translate(-159.089 -326.616)" fill="#58c0c9"/>
      <path id="Trazado_445" data-name="Trazado 445" d="M309.65,395l-1.112-1.926-23.722,13.7a17.9,17.9,0,0,1,2.786,3.526l23.158-13.37Z" transform="translate(-214.559 -292.729)" fill="#58c0c9"/>
    </g>
  </g>
</svg>
