<svg xmlns="http://www.w3.org/2000/svg" width="660.694" height="575.539" viewBox="0 0 660.694 575.539"><defs><style>.a{fill:#006599;}</style></defs><g transform="translate(0 -33)"><g transform="translate(0 33)"><path class="a" d="M485.2,33C406.928,33,356.69,87.217,330.351,136.044,304.019,87.217,253.773,33,175.5,33,76.181,33,0,113.58,0,220.461a201.15,201.15,0,0,0,15.853,78.369h147.67L196.885,232.1a20.157,20.157,0,0,1,34.631,0L291.63,352.325l21.4-42.8a20.157,20.157,0,0,1,34.631,0l21.4,42.8L429.178,232.1a20.157,20.157,0,0,1,34.631,0l33.362,66.725h147.67a201.148,201.148,0,0,0,15.853-78.369C660.7,113.58,584.52,33,485.2,33Z" transform="translate(0 -33)"/></g><g transform="translate(36.176 284.039)"><g transform="translate(0 0)"><path class="a" d="M477.063,281.047a19.364,19.364,0,0,1-17.311-10.7l-21.4-42.8L378.236,347.764a19.364,19.364,0,0,1-34.631,0l-21.4-42.8-21.4,42.8a20.157,20.157,0,0,1-34.631,0L206.089,227.552l-21.4,42.8a19.364,19.364,0,0,1-17.311,10.7H28.037c39.838,62.682,111.589,122.218,201.332,197.971,25.2,21.267,52.005,43.9,80.144,68.294a19.388,19.388,0,0,0,25.365,0c28.147-24.406,54.954-47.028,80.144-68.294,89.751-75.745,161.5-135.289,201.332-197.971Z" transform="translate(-28.037 -227.544)"/></g></g></g></svg>