<svg xmlns="http://www.w3.org/2000/svg" width="83.354" height="72.609" viewBox="0 0 83.354 72.609">
  <g id="heart" transform="translate(0 -33)">
    <g id="Grupo_10" data-name="Grupo 10" transform="translate(0 33)">
      <g id="Grupo_9" data-name="Grupo 9">
        <path id="Trazado_63" data-name="Trazado 63" d="M61.213,33C51.338,33,45,39.84,41.677,46c-3.322-6.16-9.661-13-19.536-13C9.611,33,0,43.166,0,56.65a25.377,25.377,0,0,0,2,9.887h18.63l4.209-8.418a2.543,2.543,0,0,1,4.369,0l7.584,15.167,2.7-5.4a2.543,2.543,0,0,1,4.369,0l2.7,5.4,7.584-15.167a2.543,2.543,0,0,1,4.369,0l4.209,8.418h18.63a25.377,25.377,0,0,0,2-9.887C83.354,43.166,73.743,33,61.213,33Z" transform="translate(0 -33)" fill="#58c0c9"/>
      </g>
    </g>
    <g id="Grupo_12" data-name="Grupo 12" transform="translate(4.564 64.672)">
      <g id="Grupo_11" data-name="Grupo 11">
        <path id="Trazado_64" data-name="Trazado 64" d="M84.686,234.294a2.443,2.443,0,0,1-2.184-1.35l-2.7-5.4-7.584,15.167a2.443,2.443,0,0,1-4.369,0l-2.7-5.4-2.7,5.4a2.543,2.543,0,0,1-4.369,0L50.5,227.545l-2.7,5.4a2.443,2.443,0,0,1-2.184,1.35H28.037c5.026,7.908,14.078,15.419,25.4,24.976,3.179,2.683,6.561,5.538,10.111,8.616a2.446,2.446,0,0,0,3.2,0c3.551-3.079,6.933-5.933,10.111-8.616,11.323-9.556,20.375-17.068,25.4-24.976Z" transform="translate(-28.037 -227.545)" fill="#58c0c9"/>
      </g>
    </g>
  </g>
</svg>
