<svg xmlns="http://www.w3.org/2000/svg" width="1929.5" height="555.656" viewBox="0 0 1929.5 555.656"><g transform="translate(5 -267.844)"><path d="M0,628.5H355.5a24.125,24.125,0,0,1,23.88,23.846v82.1a12.26,12.26,0,0,0,11.775,12.4,12,12,0,0,0,12.225-12L403.5,581.5a23.5,23.5,0,1,1,47,0v225a12,12,0,0,0,24,0l-.12-510.154a23.5,23.5,0,0,1,47,0v332a47.5,47.5,0,0,0,95,0L616.5,499.5c0-19.426,15.628-36,35.053-36s34.947,14.574,34.947,34l-.121,131.846v-.5c0,26.234,23.886,46.654,50.12,46.654h-1c56,0,86.88-35.411,86.88-78.9s-55-74.75-76-89.75l51,39c-53.539-50.564-106.094-51.979-106.5-140.687-.329-71.712,57.735-131.784,129.448-131.813a128.961,128.961,0,0,1,82.053,29.271,128.961,128.961,0,0,1,82-29.271c71.521,0,129.115,57.981,129.5,129.5.41,76.323-58.366,104.93-93.831,132.634a86.277,86.277,0,0,0-30.861,46.956A69.161,69.161,0,0,0,987,599c0,43.492,32.38,76.846,81.38,76.846h-2.5a47.5,47.5,0,0,0,47.5-47.5l.12-128.846c0-19.606,15.774-36.654,35.38-36.654s35.62,17.048,35.62,36.654l-.12,128.846a47.5,47.5,0,0,0,48.312,47.494c26.044-.435,46.688-22.227,46.688-48.275V296.91c0-12.743,9.909-23.6,22.643-24.048a23.5,23.5,0,0,1,24.357,23.484L1327.5,805.5c0,6.351,5.029,12.346,11.38,12.346a11.5,11.5,0,0,0,11.5-11.5l.12-223.846c0-12.979,10.4-24.654,23.38-24.654A23.733,23.733,0,0,1,1397.5,581.5l-.119,153.346a12,12,0,0,0,12.225,12,12.26,12.26,0,0,0,11.775-12.4V652.894c0-13.126,10.74-24.247,23.865-24.045A23.737,23.737,0,0,1,1468.5,652.5l-.12,106.346a12,12,0,0,0,24,0l.24-106.5A24.125,24.125,0,0,1,1516.5,628.5h403" fill="none" stroke="#006599" stroke-linecap="round" stroke-miterlimit="10" stroke-width="10"/></g></svg>