<svg xmlns="http://www.w3.org/2000/svg" width="125" height="125" viewBox="0 0 125 125"><g transform="translate(-3 -3)"><path d="M50.753,35.684l-2.869-7.17-3.675.735a12.889,12.889,0,0,0-8.185,5.5,22.671,22.671,0,0,1,6.241-.877,20.91,20.91,0,0,1,8.487,1.813Z" transform="translate(38.15 29.473)" fill="#58c0c9"/><path d="M45.621,29.885a8.474,8.474,0,0,0,1.532-.155,17.136,17.136,0,0,1-3.537-8.448L41.7,20.135a14.057,14.057,0,0,1-3.558-3.095,8.564,8.564,0,0,0,7.474,12.845Z" transform="translate(39.276 16.219)" fill="#58c0c9"/><path d="M21.649,38.978A20.088,20.088,0,0,0,17,51.817a19.86,19.86,0,0,0,1.306,7.045H29.931A8.567,8.567,0,0,1,36.4,61.841V58.862a2.162,2.162,0,0,1,2.155-2.155h6.466V50.241a2.162,2.162,0,0,1,2.155-2.155h4.31a2.162,2.162,0,0,1,2.155,2.155v6.466H60.1a2.162,2.162,0,0,1,2.155,2.155v2.978a8.567,8.567,0,0,1,6.466-2.978H80.349a19.851,19.851,0,0,0,1.306-7.045,20.083,20.083,0,0,0-4.649-12.838A16.57,16.57,0,0,0,64.244,33a18.133,18.133,0,0,0-12.9,5.343l-2.015,2.015-2.015-2.015A18.133,18.133,0,0,0,34.412,33a16.57,16.57,0,0,0-12.763,5.978Z" transform="translate(16.172 34.655)" fill="#58c0c9"/><path d="M42.31,24.145V14.711L40,10.1l-.037.05a9.794,9.794,0,0,0,2.345,14Z" transform="translate(40.431 8.196)" fill="#58c0c9"/><path d="M14.045,28.048l-4.078.815,3.481,6.093,5.545-4.435Z" transform="translate(8.048 28.935)" fill="#58c0c9"/><path d="M21,47v8.621h4.31a4.31,4.31,0,1,0,0-8.621Z" transform="translate(20.793 50.828)" fill="#58c0c9"/><path d="M26.871,28.863l-4.078-.815L17.845,30.52l5.545,4.435Z" transform="translate(17.149 28.935)" fill="#58c0c9"/><path d="M14.587,37.248l.862-3.149L14.3,32.375l-1.713,1.371Z" transform="translate(11.075 33.933)" fill="#58c0c9"/><path d="M59.736,20.136l-1.912,1.147a17.144,17.144,0,0,1-3.537,8.448,8.544,8.544,0,0,0,10.155-8.468,8.51,8.51,0,0,0-1.149-4.222A14.1,14.1,0,0,1,59.736,20.136Z" transform="translate(59.246 16.22)" fill="#58c0c9"/><path d="M48.471,38.528c.474.569.918,1.162,1.338,1.769V31l-5.241,3.931A20.956,20.956,0,0,1,48.471,38.528Z" transform="translate(48.018 32.345)" fill="#58c0c9"/><path d="M43.487,20.234h11.6v-4.31h-4.31v-4.31h4.31V7.3H59.4v4.31h4.31v4.31H59.4v4.31H71l3.183-6.364a2.93,2.93,0,0,0,.3-1.293,2.873,2.873,0,0,0-1.6-2.586L60.36,3.729a7.1,7.1,0,0,0-6.239,0L41.6,9.99a2.89,2.89,0,0,0-1.291,3.879Z" transform="translate(42.741 0.008)" fill="#58c0c9"/><path d="M56,24.143a9.791,9.791,0,0,0,2.345-14l-.039-.05L56,14.708Z" transform="translate(61.224 8.197)" fill="#58c0c9"/><path d="M18.459,35.464a20.962,20.962,0,0,1,2.237-1.92l-1.461-1.168L18.084,34.1Z" transform="translate(17.425 33.934)" fill="#58c0c9"/><path d="M57.385,27.514,56.9,25.555a16.95,16.95,0,0,1-11.241,0l-.489,1.959,6.11,3.056Z" transform="translate(48.708 26.055)" fill="#58c0c9"/><path d="M55.46,28.192l-.726-.144-4.838,2.42,3.58,2.685Z" transform="translate(54.172 28.935)" fill="#58c0c9"/><path d="M43.523,28.192l1.985,4.961,3.58-2.685-4.838-2.42Z" transform="translate(46.811 28.935)" fill="#58c0c9"/><path d="M67.862,13H42V23.776a12.931,12.931,0,1,0,25.862,0Zm-19.4,4.31a2.155,2.155,0,1,1-2.155,2.155A2.156,2.156,0,0,1,48.466,17.31ZM63.1,27.349a9.129,9.129,0,0,1-16.332,0l-.226-.455,3.856-1.929.226.457a4.819,4.819,0,0,0,8.621,0l.226-.455L63.323,26.9Zm-1.7-5.728a2.155,2.155,0,1,1,2.155-2.155A2.156,2.156,0,0,1,61.4,21.621Z" transform="translate(45.052 11.552)" fill="#58c0c9"/><path d="M10.31,20.241h1.084a12.847,12.847,0,0,1,7.045-6.866L19.369,13a14.952,14.952,0,0,1-.437-3.537h4.31A10.788,10.788,0,0,0,34.017,20.241H44.793a8.546,8.546,0,0,1,3.513.765l.4-1.61A13.195,13.195,0,0,0,35.907,3h-13.3a10.715,10.715,0,0,0-9.638,5.957l-1.332,2.664H10.31A4.315,4.315,0,0,0,6,15.931a23.315,23.315,0,0,0,.735,5.11,8.524,8.524,0,0,1,3.575-.8Z" transform="translate(3.466 0)" fill="#58c0c9"/><path d="M9,53V70.241H53.366L36.125,53Z" transform="translate(6.931 57.759)" fill="#58c0c9"/><path d="M37.483,67.978H14.668l-3.679,3.679L7.942,68.609l3.679-3.679V44.271h4.31v19.4h14a24.231,24.231,0,0,1-1.065-7.045c0-.312.028-.621.041-.931L13.56,28.84l-.166.032A12.966,12.966,0,0,0,3,41.551V67.978A8.629,8.629,0,0,0,11.621,76.6H37.483Z" transform="translate(0 29.85)" fill="#58c0c9"/><path d="M51.777,50.191a8.5,8.5,0,0,1,.328-2.222,2.1,2.1,0,0,1-.328.067H45.311V54.5a2.162,2.162,0,0,1-2.155,2.155h-4.31A2.162,2.162,0,0,1,36.691,54.5V48.036H30.225a2.1,2.1,0,0,1-.328-.067,8.5,8.5,0,0,1,.328,2.222,8.6,8.6,0,0,1-6.017,8.175L41,75.161,57.794,58.368A8.605,8.605,0,0,1,51.777,50.191Z" transform="translate(24.499 51.947)" fill="#58c0c9"/><path d="M22.991,16h-.612a8.611,8.611,0,0,1-8.315,6.466,8.5,8.5,0,0,1-3.851-.95,12.912,12.912,0,0,0,24.944,0,8.5,8.5,0,0,1-3.851.95A8.611,8.611,0,0,1,22.991,16Z" transform="translate(8.332 15.017)" fill="#58c0c9"/><path d="M34.414,70.241H61.539V53H51.655Z" transform="translate(36.289 57.759)" fill="#58c0c9"/><path d="M77.793,48.573l3.679,3.679L78.425,55.3l-3.679-3.679H43.31a4.31,4.31,0,1,0,0,8.621H77.793a8.629,8.629,0,0,0,8.621-8.621V43H77.793Z" transform="translate(41.586 46.207)" fill="#58c0c9"/><path d="M65.038,29.249l-3.675-.735L56.993,39.439l-7.422-5.567V55.423H49.5c.034.524.069,1.05.069,1.575a24.231,24.231,0,0,1-1.065,7.045h14v-19.4h4.31V55.423h8.621v-13.5A12.966,12.966,0,0,0,65.038,29.249Z" transform="translate(52.567 29.473)" fill="#58c0c9"/><path d="M49,53V70.241H65.472A87.642,87.642,0,0,1,62.015,53Z" transform="translate(53.138 57.759)" fill="#58c0c9"/><path d="M10.31,21.621V13.83c0-.28.045-.552.063-.83H10.31a4.31,4.31,0,1,0,0,8.621Z" transform="translate(3.466 11.552)" fill="#58c0c9"/><ellipse cx="4.5" cy="4" rx="4.5" ry="4" transform="translate(18 25)" fill="#58c0c9"/><path d="M25.575,28.6,24.9,24.565a16.964,16.964,0,0,1-11.123,0L13.107,28.6l6.235,3.116Z" transform="translate(11.675 24.911)" fill="#58c0c9"/><ellipse cx="4.5" cy="4" rx="4.5" ry="4" transform="translate(35 25)" fill="#58c0c9"/><path d="M17.214,30.281l-2.265,1.81,1.263,1.894h2l1.263-1.894Z" transform="translate(13.803 31.514)" fill="#58c0c9"/><path d="M15.642,9.5l-.931.373a8.579,8.579,0,0,0-4.1,3.427,8.5,8.5,0,0,1,11.3,5.9h.612a8.577,8.577,0,0,1,1.4-2.937A15.153,15.153,0,0,1,15.642,9.5Z" transform="translate(8.795 7.507)" fill="#58c0c9"/><path d="M16.74,34l-1.823,6.657,1.4,2.455A24.361,24.361,0,0,1,18.8,37.789L17.762,34Z" transform="translate(13.766 35.81)" fill="#58c0c9"/><path d="M28.31,17.31A4.315,4.315,0,0,0,24,13v8.621A4.315,4.315,0,0,0,28.31,17.31Z" transform="translate(24.259 11.552)" fill="#58c0c9"/><path d="M25.73,28.84l-3.041,5.319A20.964,20.964,0,0,1,27.84,33.5a22.656,22.656,0,0,1,6.239.877,12.887,12.887,0,0,0-8.183-5.5Z" transform="translate(22.744 29.85)" fill="#58c0c9"/></g></svg>