<svg xmlns="http://www.w3.org/2000/svg" width="332" height="512" viewBox="0 0 332 512">
  <path id="desplazarse" d="M166.238,430.145l-89.77-94.9,29.059-27.488,60.633,64.1L226.434,307.8l29.133,27.41ZM332,392V120A120.136,120.136,0,0,0,212,0H120A120.136,120.136,0,0,0,0,120V392A120.136,120.136,0,0,0,120,512h92A120.136,120.136,0,0,0,332,392ZM212,40a80.089,80.089,0,0,1,80,80V392a80.089,80.089,0,0,1-80,80H120a80.089,80.089,0,0,1-80-80V120a80.089,80.089,0,0,1,80-80ZM166,81a20,20,0,1,0,20,20A20,20,0,0,0,166,81Zm0,80a20,20,0,1,0,20,20A20,20,0,0,0,166,161Zm0,80a20,20,0,1,0,20,20A20,20,0,0,0,166,241Zm0,0" fill="#006599"/>
</svg>
