<svg xmlns="http://www.w3.org/2000/svg" width="113.147" height="113.16" viewBox="0 0 113.147 113.16">
  <g id="surface1" transform="translate(-0.082)">
    <path id="Trazado_397" data-name="Trazado 397" d="M108.9.771a2.63,2.63,0,0,0-3.72,3.72L110.7,10.01l-4.847,4.669,8.85,8.856,4.843-4.665-4.421-4.425,9.94,9.94a2.631,2.631,0,0,0,3.721-3.72Zm0,0" transform="translate(-16.331)" fill="#58c0c9"/>
    <path id="Trazado_398" data-name="Trazado 398" d="M106.076,35.925,78.492,8.334a2.631,2.631,0,0,0-3.72,3.723l3.98,3.98-7.608,7.611,6.306,6.306a1.6,1.6,0,1,1-2.257,2.257l-6.31-6.306L63.062,31.73l6.306,6.306a1.576,1.576,0,0,1-2.148,2.306.9.9,0,0,1-.079-.079l-6.306-6.306L55.01,39.77l6.31,6.306a1.577,1.577,0,0,1-2.152,2.306.862.862,0,0,1-.076-.079L52.786,42l-5.825,5.819,6.306,6.306a1.594,1.594,0,0,1-2.247,2.26l-6.306-6.306-5.832,5.835,6.3,6.3a1.577,1.577,0,1,1-2.148,2.31l-.079-.079-6.306-6.306-5.812,5.8,6.306,6.306A1.577,1.577,0,0,1,35,72.556a.628.628,0,0,1-.079-.082l-6.306-6.3L21,73.779l5.39,5.39-6.5,6.507L23.2,88.964.586,111.613a1.577,1.577,0,1,0,2.148,2.309c.023-.03.053-.052.076-.082L25.429,91.225l3.311,3.311,6.514-6.518,5.39,5.394L98.386,35.671l3.917,3.974a2.631,2.631,0,0,0,3.721-3.72Zm0,0" transform="translate(0 -1.184)" fill="#58c0c9"/>
  </g>
</svg>
