<svg xmlns="http://www.w3.org/2000/svg" width="535.682" height="535.685" viewBox="0 0 535.682 535.685"><path d="M267.842,0H151.777a8.929,8.929,0,0,0-8.928,8.928v62.5H8.928A8.929,8.929,0,0,0,0,80.353v446.4a8.928,8.928,0,0,0,8.928,8.928H267.842a8.929,8.929,0,0,0,8.928-8.928V8.928A8.929,8.929,0,0,0,267.842,0Zm-8.928,464.26H160.705V446.4h98.209ZM17.856,133.921H142.849V401.764H17.856ZM258.914,98.209H160.705V71.425h98.209ZM17.856,419.62H142.849V446.4H17.856Zm142.849,8.928V116.065h98.209V428.548ZM258.914,17.856V53.568H160.705V17.856ZM142.849,89.281v26.784H17.856V89.281ZM17.856,464.26H142.849v53.568H17.856Zm142.849,53.568V482.116h98.209v35.712Zm0,0" fill="#006599"/><path d="M506.627,481.37,399.49,70.678A8.919,8.919,0,0,0,388.548,64.3L254.626,100.017a8.924,8.924,0,0,0-6.339,10.872L355.425,521.581a8.9,8.9,0,0,0,10.942,6.356l133.921-35.712A8.927,8.927,0,0,0,506.627,481.37ZM282.034,169.511l116.671-31.1,4.2,16.069L286.241,185.628ZM407.411,171.8l51.781,198.627L342.565,401.544,290.784,202.9Zm56.328,215.913,9.142,35.037-116.671,31.1L347.1,418.83ZM384.476,83.866l9.721,37.273-116.671,31.1-9.713-37.256ZM370.439,508.394l-9.721-37.273,116.671-31.113,9.713,37.256Zm0,0" transform="translate(28.77 7.425)" fill="#006599"/><path d="M112.353,144H40.928A8.929,8.929,0,0,0,32,152.928v71.425a8.929,8.929,0,0,0,8.928,8.928h71.425a8.929,8.929,0,0,0,8.928-8.928V152.928A8.929,8.929,0,0,0,112.353,144Zm-8.928,71.425H49.856V161.856h53.568Zm0,0" transform="translate(3.712 16.705)" fill="#006599"/></svg>