<svg xmlns="http://www.w3.org/2000/svg" width="512" height="480" viewBox="0 0 512 480"><defs><style>.a{fill:#fff;}</style></defs><g transform="translate(0 -16)"><path class="a" d="M376,196H346a15,15,0,0,0-13.416,8.292L316,237.459l-46.584-93.167a15,15,0,0,0-27.646,1.965l-22.325,66.975-12.838-12.838A15,15,0,0,0,196,196H136a15,15,0,0,0,0,30h53.787l25.606,25.606a15,15,0,0,0,24.837-5.863L258.778,190.1l43.806,87.61a15,15,0,0,0,26.832,0L355.271,226H376a15,15,0,0,0,0-30ZM196,376a15,15,0,1,0,15,15A15,15,0,0,0,196,376Zm-60,0a15,15,0,1,0,15,15A15,15,0,0,0,136,376ZM76,346H436a15,15,0,0,0,15-15V91a15,15,0,0,0-15-15H76A15,15,0,0,0,61,91V331A15,15,0,0,0,76,346ZM91,106H421V316H91ZM76,406a15,15,0,1,0-15-15A15,15,0,0,0,76,406ZM497,16H15A15,15,0,0,0,0,31V451a15,15,0,0,0,15,15H61v15a15,15,0,0,0,30,0V466H421v15a15,15,0,0,0,30,0V466h46a15,15,0,0,0,15-15V31A15,15,0,0,0,497,16ZM482,436H30V46H482Z"/></g></svg>