<svg xmlns="http://www.w3.org/2000/svg" width="124.096" height="124.098" viewBox="0 0 124.096 124.098"><defs><style>.a{fill:#fff;}</style></defs><g transform="translate(-1 -0.999)"><path class="a" d="M53.037,43H9a4.007,4.007,0,0,0-4,4V63.015a4.007,4.007,0,0,0,4,4H53.037a4.007,4.007,0,0,0,4-4V47A4.007,4.007,0,0,0,53.037,43Zm0,4,0,8.006H31.849L24.8,47.96l-5.692,7.59-3.028-4.544H9V47ZM9,63.015V55.009h4.934l4.978,7.466,6.317-8.422,4.96,4.96h22.85v4Z" transform="translate(4.006 42.066)"/><path class="a" d="M5,57H9v4H5Z" transform="translate(4.006 56.087)"/><path class="a" d="M13,57h4v4H13Z" transform="translate(12.019 56.087)"/><path class="a" d="M9,57h4v4H9Z" transform="translate(8.012 56.087)"/><path class="a" d="M52.012,7h-4A4,4,0,0,1,40,7H36A8.006,8.006,0,0,0,52.012,7Z" transform="translate(35.054 6.01)"/><path class="a" d="M89.068,101.078h6a6,6,0,0,0,5.636-4H125.1V56.007a22.139,22.139,0,0,0-15.8-21.122l-18.7-5.5-1.047-2.806A24.025,24.025,0,0,0,103.079,5V1l-48.037.042V5A24.024,24.024,0,0,0,68.574,26.579l-1.047,2.806-18.7,5.5A22.142,22.142,0,0,0,33.025,56.007V77.06H11.008A10.019,10.019,0,0,0,1,87.067v28.022A10.019,10.019,0,0,0,11.008,125.1H59.045a9.961,9.961,0,0,0,7.954-4H81.062v-4h38.029a6,6,0,1,0,0-12.009H89.068a2,2,0,0,1,0-4Zm32.025-45.071V93.072H109.083V60.935a26.744,26.744,0,0,1,6.657-17.7A18.068,18.068,0,0,1,121.093,56.007ZM112.6,40.744a30.716,30.716,0,0,0-7.52,20.192V93.072h-4.371a6,6,0,0,0-5.636-4H85.065a2,2,0,0,1-2-2V72.034L96.674,61.45a11.4,11.4,0,0,0-1.982-19.235,21.482,21.482,0,0,0,3.539-5.024l.6-1.207,9.325,2.742a17.779,17.779,0,0,1,4.439,2.018ZM72.457,45.035h.7A7.361,7.361,0,0,1,78.4,47.2l2.662,2.662L83.724,47.2a7.361,7.361,0,0,1,5.238-2.17h.7a7.407,7.407,0,0,1,4.548,13.254L81.062,68.519,67.91,58.289a7.407,7.407,0,0,1,4.548-13.254ZM59.045,5.04l40.031-.034a20.015,20.015,0,0,1-40.031.034ZM70.58,32.661,72.3,28.038a23.689,23.689,0,0,0,13.518,0l1.721,4.624,7.392,2.174-.282.564a17.507,17.507,0,0,1-4.544,5.654c-.148-.006-.292-.022-.44-.022h-.7a11.335,11.335,0,0,0-7.9,3.176,11.336,11.336,0,0,0-7.9-3.176h-.7a11.374,11.374,0,0,0-3.661.612A17.4,17.4,0,0,1,63.47,35.4l-.282-.564ZM37.028,56.007A18.068,18.068,0,0,1,42.38,43.236a26.748,26.748,0,0,1,6.657,17.7V77.06H37.028Zm28.022,59.082a6.012,6.012,0,0,1-6,6H11.008a6.012,6.012,0,0,1-6-6V87.067a6.012,6.012,0,0,1,6-6H59.045a6.012,6.012,0,0,1,6,6Zm12.009,2H68.85a10,10,0,0,0,.2-2v-2h8.006Zm12.009-8.006h30.023a2,2,0,0,1,0,4H81.062v-4H69.052V87.067A10.019,10.019,0,0,0,59.045,77.06h-6V60.935a30.716,30.716,0,0,0-7.52-20.192,17.779,17.779,0,0,1,4.439-2.018l9.325-2.742.6,1.207A21.467,21.467,0,0,0,65.031,43.8,11.392,11.392,0,0,0,65.45,61.45L79.06,72.034V87.067a6.012,6.012,0,0,0,6,6H95.073a2,2,0,0,1,0,4h-6a6,6,0,1,0,0,12.009Z"/></g></svg>