<svg xmlns="http://www.w3.org/2000/svg" width="136.763" height="184.332" viewBox="0 0 136.763 184.332"><defs><style>.a{fill:#fff;}</style></defs><g transform="translate(-9 -1)"><path class="a" d="M93.175,62.323a32.7,32.7,0,1,0-31.586,0A68.486,68.486,0,0,0,9,128.843v56.489H145.763V128.843A68.486,68.486,0,0,0,93.175,62.323ZM50.623,33.7A26.758,26.758,0,1,1,77.381,60.462,26.789,26.789,0,0,1,50.623,33.7Zm89.193,145.682H127.924v-77.3h-5.946v77.3H32.785v-77.3H26.839v77.3H14.946V128.843a62.435,62.435,0,0,1,124.87,0Z"/><path class="a" d="M69.543,55.888A14.614,14.614,0,0,0,62.7,76.863l4.2,7a13.478,13.478,0,0,0,23.113,0l4.2-7a14.614,14.614,0,0,0-6.838-20.975V42.839H81.2a20.8,20.8,0,0,0-41.386,2.973v17.6L28.963,54.731H19v5.946h7.876L39.812,71.027V84.462H35.456L29.51,75.543H19v5.946h7.329l5.946,8.919h7.537V97.96L19,115.8v10.287h5.946v-7.552L42.63,103.377l7.522,7.522-10.34,7.754v7.433h5.946v-4.46L55.3,114.47l31.3,8.539,9.7.1v-5.946H87.78l-10-2.726,10.7-9.166H96.3V99.328H86.281L70.857,112.552l-14.634-3.99L45.758,98.1V81.489H51.7V75.543H45.758V45.812a14.866,14.866,0,0,1,29.431-2.973H69.543Zm11.892-1.157H75.489V48.785h5.946Zm8.919,14.613a8.678,8.678,0,0,1-1.234,4.46l-4.2,7a7.532,7.532,0,0,1-12.915,0l-4.2-7a8.671,8.671,0,0,1,7.433-13.129h6.452A8.678,8.678,0,0,1,90.354,69.344Z" transform="translate(19.731 47.354)"/><path class="a" d="M43.715,40.817l-3.972-2.649-3.3,4.947,3.972,2.649a8.123,8.123,0,0,1,3.621,6.77h5.946a14.047,14.047,0,0,0-6.27-11.717Z" transform="translate(54.154 73.336)"/></g></svg>